<?xml version="1.0" encoding="utf-8"?>
<!-- Generator: Adobe Illustrator 24.1.2, SVG Export Plug-In . SVG Version: 6.00 Build 0)  -->
<svg version="1.1" id="icon" xmlns="http://www.w3.org/2000/svg" xmlns:xlink="http://www.w3.org/1999/xlink" x="0px" y="0px"
	 viewBox="0 0 2000 2000" style="enable-background:new 0 0 2000 2000;" xml:space="preserve">
<style type="text/css">
	.st0{fill:#1E1E1E;stroke:#000000;stroke-miterlimit:10;}
	.st1{fill:#FFFFFF;}
	.st2{fill:#F7D935;}
</style>
<circle class="st0" cx="1000" cy="1000" r="1000"/>
<g>
	<path class="st1" d="M1000,1625c-84.3,0-166.2-16.5-243.3-49.2c-74.4-31.5-141.3-76.5-198.6-133.9s-102.4-124.2-133.9-198.6
		c-32.6-77.1-49.2-159-49.2-243.3s16.5-166.2,49.2-243.3C455.6,682.2,500.7,615.4,558,558s124.2-102.4,198.6-133.9
		c77.1-32.6,159-49.1,243.3-49.1s166.2,16.5,243.3,49.2c74.4,31.5,141.3,76.5,198.6,133.9s102.4,124.2,133.9,198.6
		c32.6,77.1,49.2,159,49.2,243.3s-16.5,166.2-49.2,243.3c-31.5,74.4-76.5,141.3-133.9,198.6s-124.2,102.4-198.6,133.9
		C1166.2,1608.5,1084.3,1625,1000,1625z"/>
	<path class="st2" d="M1000,500c276.1,0,500,223.9,500,500s-223.9,500-500,500s-500-223.9-500-500S723.9,500,1000,500 M1000,250
		c-50.7,0-101.5,5.1-150.9,15.2c-48.3,9.9-95.8,24.6-141.1,43.8c-44.5,18.8-87.4,42.1-127.5,69.2c-39.7,26.8-77,57.6-110.8,91.4
		s-64.6,71.2-91.4,110.8c-27.1,40.1-50.4,83-69.2,127.5c-19.2,45.4-33.9,92.8-43.8,141.1C255.1,898.5,250,949.3,250,1000
		s5.1,101.5,15.2,150.9c9.9,48.3,24.6,95.8,43.8,141.1c18.8,44.5,42.1,87.4,69.2,127.5c26.8,39.7,57.6,76.9,91.4,110.8
		c33.9,33.9,71.2,64.6,110.8,91.4c40.1,27.1,83,50.4,127.5,69.2c45.4,19.2,92.8,33.9,141.1,43.8c49.4,10.1,100.2,15.2,150.9,15.2
		c50.7,0,101.5-5.1,150.9-15.2c48.3-9.9,95.8-24.6,141.1-43.8c44.5-18.8,87.4-42.1,127.5-69.2c39.7-26.8,76.9-57.6,110.8-91.4
		c33.9-33.9,64.6-71.2,91.4-110.8c27.1-40.1,50.4-83,69.2-127.5c19.2-45.4,33.9-92.8,43.8-141.1c10.1-49.4,15.2-100.2,15.2-150.9
		c0-50.7-5.1-101.5-15.2-150.9c-9.9-48.3-24.6-95.8-43.8-141.1c-18.8-44.5-42.1-87.4-69.2-127.5c-26.8-39.7-57.6-77-91.4-110.8
		c-33.9-33.9-71.2-64.6-110.8-91.4c-40.1-27.1-83-50.4-127.5-69.2c-45.4-19.2-92.8-33.9-141.1-43.8
		C1101.5,255.1,1050.7,250,1000,250L1000,250z"/>
</g>
</svg>
